<svg width="24" height="24" viewBox="0 0 24 24" fill="none"
stroke="currentColor"
stroke-width="1" xmlns="http://www.w3.org/2000/svg">
<path d="M3 21V7C3 5.9 3.39167 4.95833 4.175 4.175C4.95833 3.39167 5.9 3 7 3H14C15.1 3 16.0417 3.39167 16.825 4.175C17.6083 4.95833 18 5.9 18 7V8H16V7C16 6.45 15.8043 5.97933 15.413 5.588C15.0217 5.19667 14.5507 5.00067 14 5H7C6.45 5 5.97933 5.196 5.588 5.588C5.19667 5.98 5.00067 6.45067 5 7V19H16V17H18V21H3ZM10.5 16C11.6 16 12.5417 15.6083 13.325 14.825C14.1083 14.0417 14.5 13.1 14.5 12C14.5 10.9 14.1083 9.95833 13.325 9.175C12.5417 8.39167 11.6 8 10.5 8C9.4 8 8.45833 8.39167 7.675 9.175C6.89167 9.95833 6.5 10.9 6.5 12C6.5 13.1 6.89167 14.0417 7.675 14.825C8.45833 15.6083 9.4 16 10.5 16ZM10.5 14C9.95 14 9.47933 13.8043 9.088 13.413C8.69667 13.0217 8.50067 12.5507 8.5 12C8.49933 11.4493 8.69533 10.9787 9.088 10.588C9.48067 10.1973 9.95133 10.0013 10.5 10C11.0487 9.99867 11.5197 10.1947 11.913 10.588C12.3063 10.9813 12.502 11.452 12.5 12C12.498 12.548 12.3023 13.019 11.913 13.413C11.5237 13.807 11.0527 14.0027 10.5 14ZM17 12V10H17.9C18.05 10 18.1833 9.96267 18.3 9.888C18.4167 9.81333 18.5167 9.70067 18.6 9.55C18.85 9.06667 19.1957 8.68733 19.637 8.412C20.0783 8.13667 20.566 7.99933 21.1 8H22V10H21.1C20.95 10 20.8167 10.0377 20.7 10.113C20.5833 10.1883 20.4833 10.3007 20.4 10.45C20.15 10.9333 19.8043 11.3127 19.363 11.588C18.9217 11.8633 18.434 12.0007 17.9 12H17ZM17 16V14H17.9C18.05 14 18.1833 13.9627 18.3 13.888C18.4167 13.8133 18.5167 13.7007 18.6 13.55C18.85 13.0667 19.1957 12.6873 19.637 12.412C20.0783 12.1367 20.566 11.9993 21.1 12H22V14H21.1C20.95 14 20.8167 14.0377 20.7 14.113C20.5833 14.1883 20.4833 14.3007 20.4 14.45C20.15 14.9333 19.8043 15.3127 19.363 15.588C18.9217 15.8633 18.434 16.0007 17.9 16H17Z" fill="black"/>
</svg>
