<svg width="24" height="24" viewBox="0 0 24 24" fill="none" xmlns="http://www.w3.org/2000/svg">
<path d="M4 20V7C4 6.17533 4.29367 5.469 4.881 4.881C5.46833 4.293 6.17467 3.99933 7 4H14C14.8253 4 15.5317 4.29367 16.119 4.881C16.7063 5.46833 17 6.17467 17 7V8H16V7C16 6.45 15.8043 5.97933 15.413 5.588C15.0217 5.19667 14.5507 5.00067 14 5H7C6.45 5 5.97933 5.196 5.588 5.588C5.19667 5.98 5.00067 6.45067 5 7V19H16V17H17V20H4ZM10.5 15C11.3253 15 12.0317 14.7063 12.619 14.119C13.2063 13.5317 13.5 12.8253 13.5 12C13.5 11.1747 13.2063 10.4683 12.619 9.881C12.0317 9.29367 11.3253 9 10.5 9C9.67467 9 8.96833 9.29367 8.381 9.881C7.79367 10.4683 7.5 11.1747 7.5 12C7.5 12.8253 7.79367 13.5317 8.381 14.119C8.96833 14.7063 9.67467 15 10.5 15ZM10.5 14C9.95 14 9.47933 13.8043 9.088 13.413C8.69667 13.0217 8.50067 12.5507 8.5 12C8.49933 11.4493 8.69533 10.9787 9.088 10.588C9.48067 10.1973 9.95133 10.0013 10.5 10C11.0487 9.99867 11.5197 10.1947 11.913 10.588C12.3063 10.9813 12.502 11.452 12.5 12C12.498 12.548 12.3023 13.019 11.913 13.413C11.5237 13.807 11.0527 14.0027 10.5 14ZM16.5 11.5V10.5H16.9C17.1553 10.5 17.3823 10.4433 17.581 10.33C17.7797 10.2167 17.9397 10.0333 18.061 9.78C18.2597 9.374 18.54 9.05933 18.902 8.836C19.264 8.612 19.6633 8.5 20.1 8.5H20.5V9.5H20.1C19.8447 9.5 19.6177 9.55667 19.419 9.67C19.2203 9.78333 19.0603 9.96667 18.939 10.22C18.7403 10.626 18.46 10.9407 18.098 11.164C17.736 11.388 17.3367 11.5 16.9 11.5H16.5ZM16.5 15.5V14.5H16.9C17.1553 14.5 17.3823 14.4433 17.581 14.33C17.7797 14.2167 17.9397 14.0333 18.061 13.78C18.2597 13.4 18.54 13.0917 18.902 12.855C19.264 12.6183 19.6633 12.5 20.1 12.5H20.5V13.5H20.1C19.8447 13.5 19.6177 13.5567 19.419 13.67C19.2203 13.7833 19.0603 13.9667 18.939 14.22C18.7403 14.626 18.46 14.9407 18.098 15.164C17.736 15.388 17.3367 15.5 16.9 15.5H16.5Z" fill="black"/>
</svg>
