<svg width="16" height="16" viewBox="0 0 16 16" fill="none" xmlns="http://www.w3.org/2000/svg">
<path d="M9.5 12V11.25C9.5 10.3438 10.4856 9.48656 11.125 8.875C12.0263 8.01344 12.5 6.85594 12.5 5.5C12.5 3 10.5084 1 8 1C7.40859 0.998351 6.82269 1.11362 6.27598 1.33918C5.72927 1.56474 5.23254 1.89615 4.81434 2.31434C4.39615 2.73253 4.06475 3.22926 3.83918 3.77597C3.61362 4.32268 3.49835 4.90859 3.5 5.5C3.5 6.8075 3.99406 8.04344 4.875 8.875C5.51094 9.47531 6.5 10.3344 6.5 11.25V12M7 15H9M6.5 13.5H9.5M8 12V8" stroke="black" stroke-linecap="round" stroke-linejoin="round"/>
<path d="M9.1875 7.5C9.1875 7.5 8.51531 8 8 8C7.48469 8 6.8125 7.5 6.8125 7.5" stroke="black" stroke-linecap="round" stroke-linejoin="round"/>
</svg>
