<svg width="24" height="24" viewBox="0 0 24 24" fill="none" xmlns="http://www.w3.org/2000/svg">
<path d="M8.679 19H15.341L14.591 16H9.429L8.679 19ZM9 15H15C16.3833 15 17.5627 14.5123 18.538 13.537C19.5133 12.5617 20.0007 11.3827 20 10C19.9993 8.61733 19.5117 7.43833 18.537 6.463C17.5623 5.48767 16.3833 5 15 5H9C7.61667 5 6.43767 5.48767 5.463 6.463C4.48833 7.43833 4.00067 8.61733 4 10C3.99933 11.3827 4.487 12.562 5.463 13.538C6.439 14.514 7.618 15.0013 9 15ZM11.996 12.5C11.3073 12.5 10.7193 12.255 10.232 11.765C9.74467 11.275 9.50067 10.6853 9.5 9.996C9.49933 9.30667 9.74467 8.71867 10.236 8.232C10.7273 7.74533 11.3167 7.50133 12.004 7.5C12.6913 7.49867 13.2793 7.744 13.768 8.236C14.2567 8.728 14.5007 9.31733 14.5 10.004C14.4993 10.6907 14.2543 11.2787 13.765 11.768C13.2757 12.2573 12.686 12.5013 11.996 12.5ZM6.5 8.73C6.70667 8.73 6.88033 8.66 7.021 8.52C7.161 8.38067 7.231 8.20733 7.231 8C7.231 7.79267 7.161 7.61933 7.021 7.48C6.88167 7.34 6.70833 7.27 6.501 7.27C6.29367 7.27 6.12033 7.34 5.981 7.48C5.841 7.61933 5.771 7.79267 5.771 8C5.771 8.20733 5.841 8.38067 5.981 8.52C6.12033 8.66 6.29267 8.73 6.5 8.73ZM5 20C4.858 20 4.73933 19.952 4.644 19.856C4.54867 19.76 4.50067 19.641 4.5 19.499C4.49933 19.357 4.54733 19.2383 4.644 19.143C4.74067 19.0477 4.85933 19 5 19H7.648L8.404 15.958C6.882 15.8153 5.601 15.1783 4.561 14.047C3.521 12.9157 3.00067 11.5667 3 10C3 8.32867 3.58233 6.911 4.747 5.747C5.911 4.58233 7.32867 4 9 4H15C16.6713 4 18.0893 4.58233 19.254 5.747C20.418 6.911 21 8.32867 21 10C21 11.5667 20.48 12.9157 19.44 14.047C18.4 15.1783 17.1187 15.815 15.596 15.957L16.352 19H19C19.142 19 19.2607 19.048 19.356 19.144C19.4513 19.24 19.4993 19.359 19.5 19.501C19.5007 19.643 19.4527 19.7617 19.356 19.857C19.2593 19.9523 19.1407 20 19 20H5ZM12 13.5C12.972 13.5 13.7983 13.1597 14.479 12.479C15.1597 11.7983 15.5 10.972 15.5 10C15.5 9.028 15.1597 8.20167 14.479 7.521C13.7983 6.84033 12.972 6.5 12 6.5C11.028 6.5 10.2017 6.84033 9.521 7.521C8.84033 8.20167 8.5 9.028 8.5 10C8.5 10.972 8.84033 11.7983 9.521 12.479C10.2017 13.1597 11.028 13.5 12 13.5Z" fill="black"/>
</svg>
