<svg width="24" height="24" viewBox="0 0 24 24" fill="none" xmlns="http://www.w3.org/2000/svg">
<path d="M10.716 20.808C10.0667 20.808 9.57332 20.6157 9.23599 20.231C8.89932 19.847 8.73099 19.4093 8.73099 18.918C8.73099 18.5907 8.80099 18.2677 8.94099 17.949C9.08165 17.6303 9.30699 17.3697 9.61699 17.167C9.99699 16.9083 10.312 16.5603 10.562 16.123C10.812 15.6857 10.9987 15.201 11.122 14.669C10.9573 14.6063 10.796 14.534 10.638 14.452C10.4807 14.37 10.3283 14.2633 10.181 14.132L7.84199 14.977C7.59732 15.0637 7.36532 15.134 7.14599 15.188C6.92665 15.242 6.70099 15.269 6.46899 15.269C5.60632 15.269 4.84465 14.8823 4.18399 14.109C3.52332 13.3357 3.19265 12.2043 3.19199 10.715C3.19199 10.0663 3.38299 9.57333 3.76499 9.236C4.14699 8.89867 4.57599 8.73033 5.05199 8.731C5.39532 8.731 5.72732 8.801 6.04799 8.941C6.36799 9.08167 6.62965 9.307 6.83299 9.617C7.09165 9.997 7.43965 10.312 7.87699 10.562C8.31432 10.812 8.79899 10.9987 9.33099 11.122C9.39365 10.9573 9.46599 10.796 9.54799 10.638C9.62999 10.4807 9.73665 10.3283 9.86799 10.181L9.02299 7.842C8.93632 7.61 8.86565 7.38 8.81099 7.152C8.75765 6.92333 8.73099 6.70133 8.73099 6.486C8.73099 5.47067 9.17332 4.668 10.058 4.078C10.942 3.48733 12.0173 3.192 13.284 3.192C13.9333 3.192 14.4267 3.382 14.764 3.762C15.1007 4.142 15.269 4.56867 15.269 5.042C15.269 5.36667 15.199 5.69233 15.059 6.019C14.9183 6.34567 14.693 6.61033 14.383 6.813C14.003 7.07233 13.6877 7.42367 13.437 7.867C13.1863 8.311 13.0003 8.799 12.879 9.331C13.0557 9.40633 13.2233 9.48633 13.382 9.571C13.5413 9.65567 13.687 9.75433 13.819 9.867L16.158 8.998C16.4027 8.91133 16.631 8.845 16.843 8.799C17.055 8.75367 17.2773 8.731 17.51 8.731C18.6187 8.731 19.4453 9.19967 19.99 10.137C20.5353 11.0737 20.808 12.1227 20.808 13.284C20.808 13.9333 20.6053 14.4267 20.2 14.764C19.7947 15.1013 19.3453 15.2697 18.852 15.269C18.5353 15.269 18.226 15.199 17.924 15.059C17.622 14.9183 17.3697 14.693 17.167 14.383C16.9083 14.003 16.5603 13.688 16.123 13.438C15.6857 13.188 15.201 13.0013 14.669 12.878C14.6063 13.0427 14.534 13.2007 14.452 13.352C14.37 13.5033 14.2633 13.659 14.132 13.819L14.977 16.158C15.0603 16.388 15.13 16.6073 15.186 16.816C15.242 17.0247 15.2697 17.2303 15.269 17.433C15.2603 18.2983 14.8723 19.077 14.105 19.769C13.3377 20.461 12.2087 20.8073 10.716 20.808ZM12.005 13.808C12.5083 13.808 12.9347 13.6317 13.284 13.279C13.6333 12.927 13.808 12.4993 13.808 11.996C13.808 11.4927 13.6317 11.066 13.279 10.716C12.9263 10.366 12.4987 10.1913 11.996 10.192C11.4933 10.1927 11.0667 10.369 10.716 10.721C10.3653 11.073 10.1907 11.501 10.192 12.005C10.1933 12.509 10.3697 12.9353 10.721 13.284C11.0723 13.6327 11.5003 13.8073 12.005 13.808ZM10.696 9.527C10.886 9.417 11.08 9.33667 11.278 9.286C11.476 9.23533 11.676 9.208 11.878 9.204C12.0113 8.51667 12.2403 7.89233 12.565 7.331C12.8883 6.76967 13.307 6.321 13.821 5.985C13.9683 5.87967 14.08 5.75133 14.156 5.6C14.232 5.44867 14.2697 5.266 14.269 5.052C14.269 4.81067 14.1903 4.60733 14.033 4.442C13.875 4.27533 13.6257 4.192 13.285 4.192C12.623 4.192 11.8737 4.34867 11.037 4.662C10.201 4.974 9.76565 5.58467 9.73099 6.494C9.73099 6.66467 9.75499 6.823 9.80299 6.969C9.85099 7.11567 9.89165 7.24733 9.92499 7.364L10.696 9.527ZM6.46199 14.269C6.68199 14.269 6.98265 14.2043 7.36399 14.075L9.54599 13.304C9.43599 13.14 9.35265 12.9587 9.29599 12.76C9.23865 12.562 9.20799 12.349 9.20399 12.121C8.51665 11.9877 7.89232 11.759 7.33099 11.435C6.76965 11.1117 6.32099 10.693 5.98499 10.179C5.87965 10.0317 5.74065 9.92 5.56799 9.844C5.39532 9.768 5.22332 9.73033 5.05199 9.731C4.77399 9.731 4.56132 9.80967 4.41399 9.967C4.26599 10.125 4.19199 10.3743 4.19199 10.715C4.19199 11.6557 4.38599 12.4833 4.77399 13.198C5.16132 13.912 5.72399 14.269 6.46199 14.269ZM10.716 19.808C11.5253 19.808 12.322 19.627 13.106 19.265C13.8893 18.9037 14.277 18.293 14.269 17.433C14.269 17.2763 14.245 17.1297 14.197 16.993C14.149 16.855 14.1083 16.736 14.075 16.636L13.304 14.454C13.114 14.5767 12.9107 14.6633 12.694 14.714C12.4773 14.7647 12.2863 14.792 12.121 14.796C11.9877 15.4833 11.7593 16.1077 11.436 16.669C11.1127 17.2303 10.6937 17.679 10.179 18.015C10.0443 18.1077 9.93499 18.24 9.85099 18.412C9.76699 18.584 9.72699 18.7543 9.73099 18.923C9.73499 19.159 9.81365 19.3657 9.96699 19.543C10.121 19.7197 10.3713 19.808 10.716 19.808ZM18.874 14.269C19.122 14.269 19.3397 14.1987 19.527 14.058C19.7143 13.9173 19.8077 13.6593 19.807 13.284C19.807 12.6227 19.6557 11.8693 19.353 11.024C19.0497 10.1793 18.434 9.74833 17.506 9.731C17.3353 9.731 17.1803 9.74767 17.041 9.781C16.9017 9.81433 16.767 9.854 16.637 9.9L14.473 10.696C14.5703 10.8727 14.6477 11.0633 14.705 11.268C14.7623 11.4727 14.7927 11.676 14.796 11.878C15.4833 12.0113 16.1077 12.24 16.669 12.564C17.2303 12.888 17.6793 13.307 18.016 13.821C18.0913 13.943 18.2117 14.048 18.377 14.136C18.543 14.2247 18.7087 14.269 18.874 14.269Z" fill="black"/>
</svg>
