<svg width="43" height="45" viewBox="0 0 43 45" fill="none" xmlns="http://www.w3.org/2000/svg">
<path d="M31.8636 37.0398C26.7538 37.0398 22.5962 32.8864 22.5962 27.7816C22.5962 27.0509 22.0037 26.459 21.2723 26.459C20.5408 26.459 19.9483 27.0509 19.9483 27.7816C19.9483 34.3455 25.2932 39.685 31.8636 39.685C32.5951 39.685 33.1876 39.093 33.1876 38.3624C33.1876 37.6317 32.5951 37.0398 31.8636 37.0398Z" fill="#FF8A00"/>
<path d="M21.2722 10.5879C11.7825 10.5879 4.0612 18.3013 4.0612 27.7816C4.0612 28.5123 4.65372 29.1042 5.38513 29.1042C6.11654 29.1042 6.70905 28.5123 6.70905 27.7816C6.70905 19.7594 13.2419 13.2331 21.2722 13.2331C29.3026 13.2331 35.8354 19.7594 35.8354 27.7816C35.8354 29.9696 34.0538 31.7494 31.8636 31.7494C29.6735 31.7494 27.8918 29.9696 27.8918 27.7816C27.8918 24.1349 24.9226 21.1687 21.2722 21.1687C17.6218 21.1687 14.6526 24.1349 14.6526 27.7816C14.6526 30.102 15.1073 32.3542 16.0057 34.4743C16.8727 36.5217 18.1135 38.3606 19.6938 39.9393C21.2741 41.5184 23.1148 42.7579 25.1643 43.6241C25.3327 43.6949 25.5074 43.7289 25.6796 43.7289C26.1953 43.7289 26.6859 43.4259 26.8997 42.9211C27.1845 42.2487 26.8694 41.4726 26.196 41.1881C24.462 40.4559 22.9046 39.4065 21.5663 38.0694C20.2287 36.7325 19.1777 35.1766 18.4449 33.4444C17.6854 31.6516 17.3008 29.7463 17.3008 27.7817C17.3008 25.5938 19.0824 23.8139 21.2726 23.8139C23.4627 23.8139 25.2443 25.5938 25.2443 27.7817C25.2443 31.4285 28.2135 34.3947 31.864 34.3947C35.5144 34.3947 38.4836 31.4285 38.4836 27.7817C38.4832 18.3006 30.7621 10.588 21.2726 10.588L21.2722 10.5879Z" fill="#FF8A00"/>
<path d="M12.0048 27.7816C12.0048 22.6769 16.1623 18.5235 21.2722 18.5235C26.3821 18.5235 30.5397 22.6769 30.5397 27.7816C30.5397 28.5123 31.1322 29.1042 31.8636 29.1042C32.595 29.1042 33.1875 28.5123 33.1875 27.7816C33.1875 21.2178 27.8427 15.8783 21.2722 15.8783C14.7018 15.8783 9.3569 21.2178 9.3569 27.7816C9.3569 33.7871 11.6982 39.4337 15.9488 43.6801C16.2074 43.9385 16.5461 44.0673 16.8852 44.0673C17.2243 44.0673 17.5631 43.9381 17.8217 43.6801C18.3392 43.1639 18.3392 42.3262 17.8217 41.8099C14.0704 38.062 12.0047 33.0802 12.0047 27.781L12.0048 27.7816Z" fill="#FF8A00"/>
<path d="M42.0096 19.0289C40.8759 16.3515 39.2532 13.947 37.1867 11.8826C35.1203 9.81821 32.7133 8.19747 30.0326 7.06419C27.2573 5.89181 24.3095 5.2973 21.2719 5.2973C18.2344 5.2973 15.2866 5.89181 12.5109 7.06495C9.83012 8.19747 7.42389 9.81859 5.35743 11.883C3.2907 13.9474 1.66785 16.3519 0.534569 19.0292C0.249765 19.7016 0.56486 20.4777 1.23827 20.7622C1.91132 21.0467 2.68892 20.7319 2.97299 20.0592C3.97293 17.6974 5.40476 15.5755 7.2296 13.7529C9.0533 11.931 11.1773 10.4999 13.5423 9.50056C15.9899 8.4662 18.5908 7.94217 21.2719 7.94217C23.953 7.94217 26.5543 8.46656 29.0015 9.50019C31.3664 10.4995 33.4909 11.9306 35.3146 13.7525C37.139 15.5751 38.5709 17.6971 39.5708 20.0588C39.7847 20.5637 40.2752 20.8666 40.7909 20.8666C40.963 20.8666 41.1377 20.8334 41.3062 20.7618C41.9796 20.4777 42.2947 19.7016 42.0095 19.0289H42.0096Z" fill="#FF8A00"/>
<path d="M3.48535 10.0126C8.23654 5.26652 14.5534 2.6527 21.2723 2.6527C27.9912 2.6527 34.3082 5.26652 39.0592 10.0126C39.3178 10.2709 39.6565 10.3997 39.9956 10.3997C40.3347 10.3997 40.6735 10.2705 40.932 10.0126C41.4496 9.49629 41.4496 8.6586 40.932 8.14231C35.6803 2.89662 28.698 0.00750732 21.2718 0.00750732C13.8455 0.00750732 6.86369 2.89662 1.61244 8.14231C1.09491 8.65858 1.09491 9.49627 1.61244 10.0126C2.1296 10.5288 2.96814 10.5288 3.48456 10.0126H3.48535Z" fill="#FF8A00"/>
</svg>
