<svg width="16" height="16" viewBox="0 0 16 16" fill="none" xmlns="http://www.w3.org/2000/svg">
<path d="M6.906 0.384C7.21634 0.13562 7.602 0.000293732 7.9995 0.000293732C8.397 0.000293732 8.78266 0.13562 9.093 0.384L14.343 4.584C14.758 4.916 15 5.419 15 5.951V12.97C15 13.4341 14.8156 13.8792 14.4874 14.2074C14.1592 14.5356 13.7141 14.72 13.25 14.72H10.75C10.5511 14.72 10.3603 14.641 10.2197 14.5003C10.079 14.3597 10 14.1689 10 13.97V8.72H6V13.97C6 14.1689 5.92098 14.3597 5.78033 14.5003C5.63968 14.641 5.44891 14.72 5.25 14.72H2.75C2.28587 14.72 1.84075 14.5356 1.51256 14.2074C1.18437 13.8792 1 13.4341 1 12.97V5.95C1 5.419 1.242 4.916 1.657 4.584L6.906 0.384Z" fill="black"/>
</svg>
