<svg width="16" height="16" viewBox="0 0 16 16" fill="none" xmlns="http://www.w3.org/2000/svg">
<path fill-rule="evenodd" clip-rule="evenodd" d="M0.327 2.64C0 3.282 0 4.12 0 5.8V8.2C0 9.88 0 10.72 0.327 11.36C0.615638 11.9231 1.07387 12.3814 1.637 12.67C2.279 12.997 3.117 12.997 4.797 12.997H5.997V14.497C5.997 14.6296 5.94432 14.7568 5.85055 14.8506C5.75679 14.9443 5.62961 14.997 5.497 14.997H4.497C4.36439 14.997 4.23721 15.0497 4.14345 15.1434C4.04968 15.2372 3.997 15.3644 3.997 15.497C3.997 15.6296 4.04968 15.7568 4.14345 15.8506C4.23721 15.9443 4.36439 15.997 4.497 15.997H11.497C11.6296 15.997 11.7568 15.9443 11.8506 15.8506C11.9443 15.7568 11.997 15.6296 11.997 15.497C11.997 15.3644 11.9443 15.2372 11.8506 15.1434C11.7568 15.0497 11.6296 14.997 11.497 14.997H10.497C10.3644 14.997 10.2372 14.9443 10.1434 14.8506C10.0497 14.7568 9.997 14.6296 9.997 14.497V12.997H11.197C12.877 12.997 13.717 12.997 14.357 12.67C14.9209 12.3825 15.3795 11.9239 15.667 11.36C15.994 10.718 15.994 9.88 15.994 8.2V5.8C15.994 4.12 15.994 3.28 15.667 2.64C15.3795 2.07606 14.9209 1.61753 14.357 1.33C13.715 1.003 12.877 1.003 11.197 1.003H4.797C3.117 1.003 2.277 1.003 1.637 1.33C1.07387 1.61864 0.615638 2.07687 0.327 2.64ZM11.227 2.002H4.827C3.97 2.002 3.387 2.002 2.937 2.04C2.499 2.075 2.274 2.14 2.118 2.22C1.74169 2.41174 1.43574 2.71769 1.244 3.094C1.164 3.25 1.099 3.474 1.064 3.913C1.027 4.363 1.026 4.943 1.026 5.803V8.203C1.026 9.06 1.027 9.643 1.064 10.093C1.1 10.531 1.165 10.756 1.244 10.912C1.436 11.288 1.742 11.594 2.118 11.786C2.274 11.866 2.499 11.931 2.937 11.966C3.387 12.002 3.967 12.003 4.827 12.003H11.227C12.084 12.003 12.667 12.003 13.117 11.966C13.555 11.93 13.78 11.865 13.936 11.786C14.312 11.594 14.618 11.288 14.81 10.912C14.89 10.756 14.955 10.531 14.99 10.092C15.027 9.642 15.028 9.062 15.028 8.202V5.802C15.028 4.946 15.027 4.362 14.99 3.912C14.954 3.475 14.889 3.25 14.81 3.094C14.6183 2.71769 14.3123 2.41174 13.936 2.22C13.78 2.14 13.555 2.075 13.117 2.04C12.667 2.003 12.087 2.002 11.227 2.002Z" fill="black"/>
</svg>
