<svg width="14" height="14" viewBox="0 0 14 14" fill="none" xmlns="http://www.w3.org/2000/svg">
<path fill-rule="evenodd" clip-rule="evenodd" d="M1.25 2.125V9.375H12.75V2.125H1.25ZM0 2C0 1.379 0.504 0.875 1.125 0.875H12.875C13.496 0.875 14 1.379 14 2V9.5C14 10.121 13.496 10.625 12.875 10.625H8.789L9.289 11.875H10C10.1658 11.875 10.3247 11.9408 10.4419 12.0581C10.5592 12.1753 10.625 12.3342 10.625 12.5C10.625 12.6658 10.5592 12.8247 10.4419 12.9419C10.3247 13.0592 10.1658 13.125 10 13.125H4C3.83424 13.125 3.67527 13.0592 3.55806 12.9419C3.44085 12.8247 3.375 12.6658 3.375 12.5C3.375 12.3342 3.44085 12.1753 3.55806 12.0581C3.67527 11.9408 3.83424 11.875 4 11.875H4.711L5.211 10.625H1.125C0.826631 10.625 0.540483 10.5065 0.329505 10.2955C0.118526 10.0845 0 9.79837 0 9.5L0 2Z" fill="black"/>
</svg>
