<svg width="24" height="24" viewBox="0 0 24 24" fill="none" xmlns="http://www.w3.org/2000/svg">
<path fill-rule="evenodd" clip-rule="evenodd" d="M11.2602 3.4312e-07H12.7396C12.9737 -6.60508e-06 13.1767 -1.26681e-05 13.3458 0.0112777C13.5247 0.02323 13.7033 0.0495201 13.8818 0.120083C14.2675 0.2726 14.5849 0.559814 14.775 0.928477C14.863 1.09904 14.9069 1.27408 14.9366 1.45097C14.9647 1.61806 14.9849 1.82012 15.0082 2.053L15.0099 2.0705C15.0578 2.54916 15.0907 2.87437 15.1338 3.11372C15.1778 3.35854 15.2197 3.42838 15.2327 3.44533C15.3572 3.60856 15.5597 3.69245 15.7632 3.66508C15.7843 3.66223 15.8633 3.64248 16.0676 3.50052C16.2673 3.36173 16.5206 3.15507 16.8929 2.85046L16.9065 2.83932C17.0876 2.69112 17.2448 2.56253 17.3827 2.46422C17.5288 2.36014 17.6837 2.26743 17.8665 2.20903C18.2616 2.08279 18.6891 2.10411 19.0697 2.26904C19.2458 2.34534 19.3907 2.453 19.5257 2.57109C19.6532 2.68265 19.7968 2.82625 19.9622 2.99174L21.0083 4.03777C21.1737 4.20323 21.3173 4.3468 21.4289 4.47431C21.547 4.60931 21.6546 4.75415 21.7309 4.93024C21.8958 5.31085 21.9172 5.73835 21.7909 6.13348C21.7325 6.31629 21.6398 6.47113 21.5357 6.61721C21.4374 6.7552 21.3088 6.91235 21.1607 7.09347L21.1495 7.10711C20.8449 7.47942 20.6382 7.73268 20.4994 7.93239C20.3575 8.13666 20.3377 8.21568 20.3349 8.23682C20.3075 8.44028 20.3914 8.64279 20.5546 8.76731C20.5715 8.78024 20.6414 8.82215 20.8862 8.86621C21.1256 8.90929 21.4508 8.94223 21.9295 8.9901L21.947 8.99185C22.1799 9.01513 22.3819 9.03533 22.549 9.06339C22.7259 9.09309 22.901 9.13702 23.0716 9.225C23.4402 9.41514 23.7274 9.73249 23.8799 10.1182C23.9505 10.2967 23.9768 10.4753 23.9887 10.6542C24 10.8233 24 11.0263 24 11.2603V12.7398C24 12.9738 24 13.1768 23.9887 13.3458C23.9768 13.5247 23.9505 13.7032 23.88 13.8816C23.7275 14.2675 23.4402 14.5849 23.0714 14.7751C22.9009 14.863 22.7259 14.9069 22.549 14.9366C22.3822 14.9646 22.1805 14.9848 21.9482 15.008C21.9478 15.0081 21.9486 15.008 21.9482 15.008L21.9296 15.0099C21.4511 15.0577 21.1259 15.0907 20.8866 15.1337C20.6419 15.1778 20.5721 15.2197 20.5551 15.2326C20.3918 15.3571 20.3079 15.5597 20.3353 15.7633C20.3381 15.7844 20.3579 15.8634 20.4998 16.0676C20.6386 16.2672 20.8452 16.5204 21.1497 16.8925L21.1608 16.9062C21.309 17.0872 21.4375 17.2443 21.5358 17.3823C21.6398 17.5283 21.7325 17.6831 21.7909 17.8658C21.9173 18.2611 21.8959 18.6887 21.7309 19.0695C21.6546 19.2455 21.547 19.3903 21.4289 19.5252C21.3174 19.6527 21.1739 19.7962 21.0085 19.9616L19.9623 21.0077C19.7968 21.1732 19.6532 21.3168 19.5257 21.4284C19.3907 21.5465 19.2459 21.6542 19.0698 21.7305C18.6892 21.8954 18.2617 21.9167 17.8665 21.7905C17.6837 21.7321 17.5289 21.6394 17.3828 21.5353C17.2448 21.437 17.0877 21.3084 16.9066 21.1602L16.8954 21.1511L16.8929 21.149C16.5206 20.8444 16.2674 20.6378 16.0676 20.499C15.8634 20.357 15.7844 20.3373 15.7632 20.3344C15.5598 20.307 15.3573 20.3909 15.2327 20.5542C15.2198 20.5711 15.1779 20.641 15.1338 20.8858C15.0908 21.1252 15.0578 21.4505 15.0099 21.9292L15.0082 21.9467C14.9849 22.1797 14.9647 22.3819 14.9366 22.549C14.9069 22.726 14.8629 22.9011 14.7749 23.0717C14.5848 23.4402 14.2675 23.7273 13.8819 23.8798C13.7034 23.9505 13.5248 23.9768 13.3458 23.9887C13.1767 24 12.9736 24 12.7395 24H11.2603C11.0263 24 10.8233 24 10.6542 23.9887C10.4753 23.9768 10.2967 23.9505 10.1182 23.8799C9.73249 23.7274 9.41514 23.4402 9.22499 23.0715C9.13702 22.901 9.09309 22.7259 9.06339 22.549C9.03533 22.3819 9.01513 22.1799 8.99185 21.947L8.9901 21.9295C8.94223 21.4508 8.90929 21.1256 8.86621 20.8862C8.82215 20.6414 8.78024 20.5716 8.76731 20.5546C8.64279 20.3914 8.44028 20.3075 8.23682 20.3349C8.21569 20.3377 8.13667 20.3575 7.93239 20.4994C7.7343 20.6371 7.48352 20.8415 7.11613 21.1421M7.10707 21.1495L7.09343 21.1607C6.9123 21.3089 6.75514 21.4375 6.61715 21.5358C6.47107 21.6399 6.31622 21.7326 6.1334 21.791C5.73829 21.9172 5.31081 21.8959 4.93021 21.731C4.75411 21.6547 4.60926 21.547 4.47426 21.4289C4.34672 21.3173 4.20311 21.1737 4.0376 21.0082L2.99172 19.9623C2.82622 19.7968 2.68261 19.6532 2.57104 19.5257C2.45294 19.3907 2.34528 19.2459 2.26898 19.0698C2.10406 18.6892 2.08274 18.2617 2.20897 17.8665C2.26737 17.6837 2.36008 17.5289 2.46416 17.3828C2.56248 17.2448 2.69109 17.0876 2.8393 16.9065L2.85043 16.8929C3.15505 16.5206 3.36172 16.2673 3.50051 16.0676C3.64247 15.8633 3.66223 15.7843 3.66507 15.7632C3.69244 15.5597 3.60856 15.3572 3.44533 15.2327C3.42837 15.2197 3.35853 15.1778 3.11372 15.1338C2.87436 15.0907 2.54915 15.0578 2.07049 15.0099L2.05298 15.0082C1.82012 14.9849 1.61806 14.9647 1.45097 14.9366C1.27408 14.9069 1.09904 14.863 0.928479 14.775C0.559814 14.5849 0.272599 14.2675 0.120082 13.8818C0.0495196 13.7033 0.0232298 13.5247 0.0112776 13.3458C-1.26681e-05 13.1767 -6.60517e-06 12.9737 3.43027e-07 12.7396V11.2605C-6.60517e-06 11.0264 -1.26681e-05 10.8233 0.0112836 10.6542C0.0232421 10.4752 0.0495459 10.2966 0.120145 10.1181C0.272657 9.73246 0.559785 9.41519 0.928327 9.22506C1.09893 9.13705 1.27401 9.09311 1.45094 9.0634C1.61808 9.03533 1.8202 9.01512 2.05314 8.99184L2.07064 8.99009C2.07173 8.98998 2.07283 8.98987 2.07392 8.98976C2.08232 8.98892 2.09068 8.98808 2.09899 8.98725C2.56231 8.9409 2.87948 8.9084 3.11414 8.86617C3.35901 8.82209 3.42886 8.78017 3.44582 8.76723C3.60899 8.64272 3.69284 8.44027 3.66551 8.23686C3.66267 8.21572 3.64292 8.13668 3.50092 7.93234C3.36208 7.73256 3.15535 7.47922 2.85063 7.10679L2.83949 7.09317C2.69121 6.91196 2.56256 6.75472 2.46421 6.61667C2.36009 6.47053 2.26734 6.31563 2.20895 6.13273C2.08283 5.73774 2.10414 5.31043 2.26894 4.92995C2.34524 4.75378 2.45294 4.60887 2.57107 4.47382C2.68267 4.34624 2.82632 4.2026 2.99188 4.03705L4.0377 2.99123C4.20319 2.82574 4.34678 2.68213 4.47431 2.57057C4.60932 2.45247 4.75416 2.34481 4.93027 2.26851C5.31086 2.1036 5.73834 2.08228 6.13346 2.2085C6.31629 2.2669 6.47114 2.35963 6.61724 2.46372C6.75524 2.56204 6.91243 2.69066 7.09359 2.83888L7.10722 2.85004C7.47949 3.15462 7.73272 3.36127 7.9324 3.50006C8.13665 3.64201 8.21566 3.66177 8.23677 3.66462C8.4403 3.69203 8.64288 3.60812 8.76742 3.44482C8.78034 3.42787 8.82223 3.35804 8.86627 3.11329C8.90933 2.87399 8.94226 2.54887 8.99012 2.07035L8.99187 2.05284C9.01514 1.82004 9.03533 1.61804 9.06338 1.45099C9.09307 1.27416 9.13697 1.09916 9.2249 0.928637C9.41506 0.559846 9.73253 0.272539 10.1184 0.120017C10.2968 0.0494925 10.4753 0.0232172 10.6543 0.0112715C10.8233 -1.26681e-05 11.0263 -6.60508e-06 11.2602 3.4312e-07M17.6166 20.2645L17.6142 20.2625L17.598 20.2493C17.249 19.9637 16.9609 19.728 16.7199 19.5605C16.4791 19.3932 16.2153 19.2421 15.9156 19.2018C15.3052 19.1196 14.6976 19.3713 14.3241 19.861C14.1407 20.1014 14.061 20.3948 14.009 20.6834C13.957 20.9724 13.92 21.3428 13.8751 21.7916L13.8727 21.8155C13.8472 22.071 13.8305 22.2348 13.8095 22.3598C13.7895 22.4791 13.7711 22.5248 13.7593 22.5477C13.6959 22.6706 13.5901 22.7663 13.4616 22.8171C13.4376 22.8266 13.3904 22.8403 13.2696 22.8484C13.1432 22.8568 12.9786 22.8571 12.7219 22.8571H11.278C11.0213 22.8571 10.8568 22.8568 10.7304 22.8484C10.6097 22.8403 10.5625 22.8266 10.5384 22.8171C10.4099 22.7663 10.3041 22.6705 10.2407 22.5477C10.2289 22.5247 10.2105 22.4791 10.1905 22.3598C10.1695 22.2349 10.1528 22.0711 10.1273 21.8158L10.1249 21.7918C10.08 21.3431 10.043 20.9727 9.991 20.6838C9.93906 20.3952 9.85935 20.1018 9.67594 19.8614C9.30238 19.3717 8.69487 19.1201 8.08449 19.2022C7.7848 19.2425 7.52097 19.3936 7.28017 19.5609C7.0391 19.7285 6.75103 19.9642 6.40202 20.2498L6.38338 20.265L6.37433 20.2724C6.18086 20.4307 6.0556 20.5326 5.95401 20.605C5.85548 20.6752 5.81023 20.6945 5.78564 20.7023C5.65394 20.7444 5.51144 20.7373 5.38458 20.6823C5.36089 20.6721 5.31779 20.6484 5.22673 20.5687C5.13138 20.4853 5.01481 20.3692 4.83333 20.1877L3.81225 19.1666C3.63078 18.9851 3.51462 18.8686 3.43122 18.7732C3.35157 18.6822 3.32789 18.6391 3.31763 18.6154C3.26266 18.4885 3.25555 18.346 3.29762 18.2143C3.30548 18.1897 3.32475 18.1445 3.39495 18.0459C3.46845 17.9428 3.57243 17.8152 3.73495 17.6166L3.75021 17.5979C4.03576 17.249 4.27145 16.9609 4.43899 16.7198C4.60633 16.479 4.75741 16.2152 4.79773 15.9155C4.87984 15.3051 4.62818 14.6976 4.1385 14.324C3.89809 14.1406 3.60472 14.0609 3.31613 14.009C3.0272 13.957 2.65685 13.92 2.20816 13.8751L2.18421 13.8727C1.92885 13.8472 1.76514 13.8305 1.64021 13.8095C1.52091 13.7895 1.47529 13.7711 1.45235 13.7593C1.32946 13.6959 1.23372 13.5901 1.18288 13.4615C1.17339 13.4375 1.15966 13.3903 1.15159 13.2696C1.14315 13.1432 1.14286 12.9787 1.14286 12.722V11.2781C1.14286 11.0214 1.14315 10.8568 1.1516 10.7304C1.15966 10.6096 1.17341 10.5624 1.18291 10.5384C1.23374 10.4099 1.32945 10.3041 1.4523 10.2407C1.47525 10.2289 1.52087 10.2105 1.64021 10.1905C1.76502 10.1695 1.92854 10.1529 2.18347 10.1274C2.18318 10.1274 2.18377 10.1273 2.18347 10.1274L2.2083 10.1249C2.65712 10.08 3.02757 10.043 3.31657 9.99095C3.60524 9.939 3.89869 9.85925 4.13913 9.67577C4.62862 9.30224 4.88019 8.6949 4.79819 8.08466C4.75791 7.78489 4.60679 7.521 4.4394 7.28013C4.27182 7.039 4.03606 6.75085 3.75042 6.40175L3.73515 6.38309C3.57256 6.18437 3.46854 6.05676 3.395 5.95354C3.32478 5.85497 3.30551 5.80971 3.29765 5.78511C3.25561 5.65344 3.26272 5.51101 3.31765 5.38418C3.32791 5.36048 3.35159 5.31736 3.43127 5.22627C3.5147 5.13089 3.6309 5.01428 3.81244 4.83273L4.83338 3.8118C5.01486 3.63032 5.13144 3.51416 5.22678 3.43075C5.31784 3.3511 5.36094 3.32742 5.38463 3.31716C5.5115 3.26219 5.65399 3.25508 5.78569 3.29716C5.81028 3.30501 5.85553 3.32428 5.95408 3.39449C6.05727 3.46801 6.18485 3.57202 6.38352 3.73456L6.40215 3.74981C6.75111 4.03533 7.03913 4.27099 7.28015 4.43851C7.52089 4.60583 7.78465 4.7569 8.08424 4.79725C8.69482 4.87948 9.30257 4.62774 9.67617 4.13785C9.85948 3.89749 9.93915 3.60419 9.99107 3.31568C10.043 3.02682 10.0801 2.65655 10.1249 2.20797L10.1273 2.18407C10.1528 1.92877 10.1695 1.76511 10.1905 1.64022C10.2105 1.52095 10.2288 1.47534 10.2407 1.4524C10.3041 1.32947 10.4099 1.2337 10.5385 1.18286C10.5625 1.17338 10.6097 1.15965 10.7304 1.15159C10.8567 1.14315 11.0213 1.14286 11.2778 1.14286H12.722C12.9787 1.14286 13.1432 1.14315 13.2696 1.15159C13.3903 1.15966 13.4375 1.17339 13.4615 1.18289C13.5901 1.23372 13.6959 1.32946 13.7593 1.45235C13.7711 1.47529 13.7895 1.52091 13.8095 1.64021C13.8305 1.76514 13.8472 1.92885 13.8727 2.18422L13.8751 2.20817C13.92 2.65686 13.957 3.02721 14.009 3.31613C14.0609 3.60472 14.1406 3.89809 14.324 4.1385C14.6976 4.62819 15.3051 4.87985 15.9156 4.79773C16.2152 4.75742 16.479 4.60634 16.7198 4.439C16.9609 4.27147 17.2489 4.03578 17.5979 3.75025L17.6166 3.73498C17.8152 3.57247 17.9427 3.4685 18.0459 3.395C18.1444 3.3248 18.1897 3.30554 18.2143 3.29768C18.346 3.2556 18.4885 3.26271 18.6153 3.31768C18.639 3.32795 18.6821 3.35162 18.7732 3.43127C18.8685 3.51467 18.9851 3.63082 19.1666 3.81229L20.1877 4.8334C20.3691 5.01487 20.4853 5.13144 20.5687 5.22678C20.6483 5.31783 20.672 5.36094 20.6823 5.38463C20.7373 5.51149 20.7444 5.65399 20.7023 5.78571C20.6944 5.81029 20.6752 5.85554 20.605 5.95406C20.5315 6.05723 20.4275 6.18478 20.265 6.38341L20.2497 6.40206C19.9642 6.75105 19.7285 7.03911 19.5609 7.28017C19.3936 7.52097 19.2425 7.78478 19.2022 8.08446C19.1201 8.69486 19.3717 9.30239 19.8614 9.67595C20.1018 9.85935 20.3952 9.93907 20.6838 9.991C20.9727 10.043 21.3431 10.08 21.7918 10.1249L21.8158 10.1273C22.0711 10.1528 22.2349 10.1695 22.3598 10.1905C22.4791 10.2105 22.5247 10.2289 22.5477 10.2407C22.6705 10.3041 22.7663 10.4099 22.8171 10.5384C22.8266 10.5625 22.8403 10.6097 22.8484 10.7304C22.8568 10.8568 22.8571 11.0213 22.8571 11.278V12.7221C22.8571 12.9787 22.8568 13.1433 22.8484 13.2696C22.8404 13.3903 22.8266 13.4375 22.8171 13.4615C22.7663 13.5901 22.6705 13.6959 22.5476 13.7593C22.5247 13.7712 22.4791 13.7895 22.3598 13.8095C22.2349 13.8305 22.0712 13.8472 21.8159 13.8727L21.7919 13.8751C21.3433 13.92 20.9731 13.957 20.6843 14.0089C20.3958 14.0608 20.1025 14.1405 19.8621 14.3238C19.3722 14.6974 19.1204 15.3052 19.2027 15.9158C19.243 16.2154 19.3941 16.4791 19.5614 16.7198C19.7288 16.9608 19.9645 17.2487 20.2499 17.5976L20.2651 17.6162C20.4276 17.8148 20.5315 17.9423 20.605 18.0454C20.6752 18.1439 20.6945 18.1891 20.7023 18.2137C20.7444 18.3455 20.7373 18.488 20.6823 18.6149C20.672 18.6386 20.6484 18.6817 20.5687 18.7727C20.4854 18.868 20.3693 18.9846 20.1879 19.166L19.1666 20.1872C18.9851 20.3687 18.8686 20.4848 18.7732 20.5682C18.6822 20.6479 18.6391 20.6715 18.6154 20.6818C18.4885 20.7368 18.346 20.7439 18.2143 20.7018C18.1897 20.694 18.1445 20.6747 18.0459 20.6045C17.9428 20.531 17.8152 20.427 17.6166 20.2645ZM12 8C9.79086 8 8 9.79086 8 12C8 14.2091 9.79086 16 12 16C14.2091 16 16 14.2091 16 12C16 9.79086 14.2091 8 12 8ZM6.85714 12C6.85714 9.15968 9.15968 6.85714 12 6.85714C14.8403 6.85714 17.1429 9.15968 17.1429 12C17.1429 14.8403 14.8403 17.1429 12 17.1429C9.15968 17.1429 6.85714 14.8403 6.85714 12Z" fill="white"/>
</svg>
