<svg width="24" height="24" viewBox="0 0 24 24" fill="none" xmlns="http://www.w3.org/2000/svg">
<path fill-rule="evenodd" clip-rule="evenodd" d="M12 3.25C12.1989 3.25 12.3897 3.32902 12.5303 3.46967C12.671 3.61032 12.75 3.80109 12.75 4V7.175L14.97 4.955C15.0387 4.88131 15.1215 4.82221 15.2135 4.78122C15.3055 4.74023 15.4048 4.71819 15.5055 4.71641C15.6062 4.71463 15.7062 4.73316 15.7996 4.77088C15.893 4.8086 15.9778 4.86474 16.049 4.93596C16.1203 5.00718 16.1764 5.09201 16.2141 5.1854C16.2518 5.27879 16.2704 5.37882 16.2686 5.47952C16.2668 5.58023 16.2448 5.67954 16.2038 5.77154C16.1628 5.86354 16.1037 5.94634 16.03 6.015L12.75 9.296V11.25H14.675L17.97 7.955C18.0387 7.88131 18.1215 7.82221 18.2135 7.78122C18.3055 7.74023 18.4048 7.71818 18.5055 7.71641C18.6062 7.71463 18.7062 7.73316 18.7996 7.77088C18.893 7.8086 18.9778 7.86474 19.049 7.93596C19.1203 8.00718 19.1764 8.09201 19.2141 8.1854C19.2518 8.27879 19.2704 8.37882 19.2686 8.47952C19.2668 8.58023 19.2448 8.67954 19.2038 8.77154C19.1628 8.86354 19.1037 8.94634 19.03 9.015L16.796 11.25H20C20.1989 11.25 20.3897 11.329 20.5303 11.4697C20.671 11.6103 20.75 11.8011 20.75 12C20.75 12.1989 20.671 12.3897 20.5303 12.5303C20.3897 12.671 20.1989 12.75 20 12.75H16.825L19.03 14.955C19.1037 15.0237 19.1628 15.1065 19.2038 15.1985C19.2448 15.2905 19.2668 15.3898 19.2686 15.4905C19.2704 15.5912 19.2518 15.6912 19.2141 15.7846C19.1764 15.878 19.1203 15.9628 19.049 16.034C18.9778 16.1053 18.893 16.1614 18.7996 16.1991C18.7062 16.2368 18.6062 16.2554 18.5055 16.2536C18.4048 16.2518 18.3055 16.2298 18.2135 16.1888C18.1215 16.1478 18.0387 16.0887 17.97 16.015L14.704 12.75H12.75V14.675L16.03 17.955C16.1037 18.0237 16.1628 18.1065 16.2038 18.1985C16.2448 18.2905 16.2668 18.3898 16.2686 18.4905C16.2704 18.5912 16.2518 18.6912 16.2141 18.7846C16.1764 18.878 16.1203 18.9628 16.049 19.034C15.9778 19.1053 15.893 19.1614 15.7996 19.1991C15.7062 19.2368 15.6062 19.2554 15.5055 19.2536C15.4048 19.2518 15.3055 19.2298 15.2135 19.1888C15.1215 19.1478 15.0387 19.0887 14.97 19.015L12.75 16.796V20C12.75 20.1989 12.671 20.3897 12.5303 20.5303C12.3897 20.671 12.1989 20.75 12 20.75C11.8011 20.75 11.6103 20.671 11.4697 20.5303C11.329 20.3897 11.25 20.1989 11.25 20V16.796L9.03 19.016C8.88783 19.1485 8.69978 19.2206 8.50548 19.2172C8.31118 19.2137 8.12579 19.135 7.98838 18.9976C7.85097 18.8602 7.77225 18.6748 7.76883 18.4805C7.7654 18.2862 7.83752 18.0982 7.97 17.956L11.25 14.675V12.75H9.296L6.03 16.016C5.88783 16.1485 5.69978 16.2206 5.50548 16.2172C5.31118 16.2137 5.12579 16.135 4.98838 15.9976C4.85097 15.8602 4.77225 15.6748 4.76883 15.4805C4.7654 15.2862 4.83752 15.0982 4.97 14.956L7.175 12.75H4C3.80109 12.75 3.61032 12.671 3.46967 12.5303C3.32902 12.3897 3.25 12.1989 3.25 12C3.25 11.8011 3.32902 11.6103 3.46967 11.4697C3.61032 11.329 3.80109 11.25 4 11.25H7.204L4.97 9.016C4.83752 8.87383 4.7654 8.68578 4.76883 8.49148C4.77225 8.29718 4.85097 8.11179 4.98838 7.97438C5.12579 7.83697 5.31118 7.75825 5.50548 7.75483C5.69978 7.7514 5.88783 7.82352 6.03 7.956L9.325 11.25H11.25V9.296L7.97 6.016C7.89631 5.94734 7.83721 5.86454 7.79622 5.77254C7.75523 5.68054 7.73319 5.58123 7.73141 5.48052C7.72963 5.37982 7.74816 5.27979 7.78588 5.1864C7.8236 5.09301 7.87974 5.00818 7.95096 4.93696C8.02218 4.86574 8.10701 4.8096 8.2004 4.77188C8.29379 4.73416 8.39382 4.71563 8.49452 4.71741C8.59522 4.71919 8.69454 4.74123 8.78654 4.78222C8.87854 4.82321 8.96134 4.88231 9.03 4.956L11.25 7.175V4C11.25 3.80109 11.329 3.61032 11.4697 3.46967C11.6103 3.32902 11.8011 3.25 12 3.25Z" fill="black"/>
</svg>
