<svg width="24" height="24" viewBox="0 0 24 24" fill="none" xmlns="http://www.w3.org/2000/svg">
<path d="M16.385 21H7.615C7.171 21 6.791 20.8417 6.475 20.525C6.159 20.2083 6.00067 19.8287 6 19.386V4.615C6 4.171 6.15833 3.791 6.475 3.475C6.79167 3.159 7.17167 3.00067 7.615 3H16.385C16.829 3 17.209 3.15833 17.525 3.475C17.841 3.79167 17.9993 4.17167 18 4.615V19.385C18 19.829 17.8417 20.209 17.525 20.525C17.2083 20.841 16.8283 20.9993 16.385 21ZM16.385 20C16.5643 20 16.7117 19.9423 16.827 19.827C16.9423 19.7117 17 19.5643 17 19.385V4.615C17 4.43567 16.9423 4.28833 16.827 4.173C16.7117 4.05767 16.5643 4 16.385 4H7.615C7.43567 4 7.28833 4.05767 7.173 4.173C7.05767 4.28833 7 4.436 7 4.616V19.385C7 19.5643 7.05767 19.7117 7.173 19.827C7.28833 19.9423 7.436 20 7.616 20H16.385ZM12.003 8.616C12.4483 8.616 12.8283 8.45733 13.143 8.14C13.4577 7.82267 13.615 7.44167 13.615 6.997C13.615 6.55233 13.4567 6.17233 13.14 5.857C12.8233 5.54167 12.4423 5.38433 11.997 5.385C11.5517 5.38567 11.1717 5.544 10.857 5.86C10.5423 6.176 10.385 6.55733 10.385 7.004C10.385 7.45067 10.5433 7.83067 10.86 8.144C11.1767 8.45733 11.557 8.61467 12.003 8.616ZM12 18.462C12.9593 18.462 13.776 18.1247 14.45 17.45C15.124 16.7753 15.4613 15.9587 15.462 15C15.4627 14.0413 15.1253 13.2247 14.45 12.55C13.7747 11.8753 12.958 11.538 12 11.538C11.042 11.538 10.2253 11.8753 9.55 12.55C8.87467 13.2247 8.53733 14.0413 8.538 15C8.53867 15.9587 8.876 16.7753 9.55 17.45C10.224 18.1247 11.0407 18.462 12 18.462ZM11.999 17.462C11.3217 17.462 10.742 17.2207 10.26 16.738C9.77867 16.256 9.538 15.676 9.538 14.998C9.538 14.3213 9.77933 13.7423 10.262 13.261C10.744 12.779 11.324 12.538 12.002 12.538C12.6787 12.538 13.2577 12.7793 13.739 13.262C14.2203 13.744 14.461 14.324 14.461 15.002C14.461 15.6787 14.22 16.2577 13.738 16.739C13.256 17.2203 12.676 17.461 11.998 17.461" fill="black"/>
</svg>
