<svg width="16" height="16" viewBox="0 0 16 16" fill="none" xmlns="http://www.w3.org/2000/svg">
<mask id="mask0_1012_14" style="mask-type:luminance" maskUnits="userSpaceOnUse" x="0" y="0" width="16" height="16">
<path d="M0 0H16V16H0V0Z" fill="white"/>
</mask>
<g mask="url(#mask0_1012_14)">
<path fill-rule="evenodd" clip-rule="evenodd" d="M5.06 9.94C4.77896 9.65861 4.39769 9.50035 4 9.5H2C1.86739 9.5 1.74021 9.44732 1.64645 9.35355C1.55268 9.25979 1.5 9.13261 1.5 9V7C1.5 6.86739 1.55268 6.74021 1.64645 6.64645C1.74021 6.55268 1.86739 6.5 2 6.5H4C4.39769 6.49965 4.77896 6.34138 5.06 6.06L7.543 3.578C7.58054 3.54066 7.62829 3.51528 7.68024 3.50505C7.73219 3.49483 7.786 3.50022 7.83488 3.52054C7.88377 3.54087 7.92554 3.57522 7.95493 3.61926C7.98432 3.6633 8 3.71506 8 3.768V12.232C8 12.2849 7.98432 12.3367 7.95493 12.3807C7.92554 12.4248 7.88377 12.4591 7.83488 12.4795C7.786 12.4998 7.73219 12.5052 7.68024 12.4949C7.62829 12.4847 7.58054 12.4593 7.543 12.422L5.06 9.94ZM2 5H4L6.482 2.518C6.72926 2.27081 7.04426 2.10247 7.38717 2.03428C7.73009 1.96609 8.08552 2.0011 8.40854 2.13489C8.73156 2.26868 9.00766 2.49524 9.20193 2.78592C9.39621 3.07661 9.49994 3.41837 9.5 3.768V12.232C9.49994 12.5816 9.39621 12.9234 9.20193 13.2141C9.00766 13.5048 8.73156 13.7313 8.40854 13.8651C8.08552 13.9989 7.73009 14.0339 7.38717 13.9657C7.04426 13.8975 6.72926 13.7292 6.482 13.482L4 11H2C1.46957 11 0.960859 10.7893 0.585786 10.4142C0.210714 10.0391 0 9.53043 0 9V7C0 6.46957 0.210714 5.96086 0.585786 5.58579C0.960859 5.21071 1.46957 5 2 5ZM14.162 13.103C13.897 13.422 13.419 13.419 13.126 13.127C12.834 12.834 12.838 12.361 13.095 12.037C14.0072 10.8894 14.5025 9.46598 14.5 8C14.5025 6.53402 14.0072 5.11063 13.095 3.963C12.838 3.639 12.834 3.166 13.126 2.873C13.419 2.581 13.897 2.579 14.162 2.897C15.3524 4.3308 16.0028 6.13643 16 8C16 9.94 15.31 11.718 14.162 13.103ZM12.024 10.968C11.778 11.301 11.298 11.298 11.005 11.005C10.712 10.712 10.721 10.241 10.945 9.892C11.3075 9.32755 11.5001 8.67082 11.5 8C11.5 7.303 11.296 6.653 10.945 6.108C10.721 5.76 10.712 5.288 11.005 4.995C11.298 4.702 11.778 4.699 12.025 5.032C12.637 5.862 13 6.89 13 8C13.0015 9.06841 12.6593 10.109 12.024 10.968Z" fill="black"/>
</g>
</svg>
